<svg width="22" height="24" viewBox="0 0 22 24" fill="none" xmlns="http://www.w3.org/2000/svg">
<path d="M7.32458 23.9999C3.36567 23.9794 0.0909424 16.6879 0.0909424 12.9745C0.0909424 6.90873 5.13432 5.58077 7.07801 5.58077C7.95394 5.58077 8.88926 5.89112 9.71423 6.16576C10.2911 6.35734 10.8878 6.5551 11.2196 6.5551C11.4182 6.5551 11.8862 6.38687 12.2995 6.23926C13.1808 5.92272 14.2774 5.5293 15.5544 5.5293C15.5567 5.5293 15.5598 5.5293 15.562 5.5293C16.5156 5.5293 19.4068 5.71811 21.145 8.07328L21.5521 8.62533L20.9662 9.02428C20.129 9.59418 18.6016 10.6338 18.6016 12.693C18.6016 15.132 20.3314 16.0699 21.1625 16.5211C21.5293 16.7202 21.9091 16.9255 21.9091 17.3746C21.9091 17.6678 19.3154 23.9636 15.5491 23.9636C14.6275 23.9636 13.976 23.7136 13.4014 23.4932C12.82 23.27 12.3184 23.0778 11.4897 23.0778C11.0696 23.0778 10.5384 23.257 9.97597 23.4472C9.20742 23.706 8.33751 23.9999 7.35045 23.9999H7.32458Z" fill="#222222"/>
<path d="M15.9516 0C16.0497 3.19105 13.5203 5.40485 10.9939 5.26601C10.5776 2.71944 13.52 0 15.9516 0Z" fill="#222222"/>
</svg>
