<svg width="13" height="14" viewBox="0 0 13 14" fill="none" xmlns="http://www.w3.org/2000/svg">
<path fill-rule="evenodd" clip-rule="evenodd" d="M6.38288 10.7071C6.26687 10.7071 6.15602 10.662 6.07663 10.5823L1.01039 5.81411C0.927569 5.73679 0.880981 5.63155 0.880981 5.52175C0.880981 5.41196 0.927569 5.30672 1.01039 5.2294L1.18539 5.0647C1.26771 4.98427 1.38175 4.93955 1.50039 4.94117H3.75789V0.411764C3.75789 0.184353 3.95376 0 4.19539 0H8.57038C8.812 0 9.00788 0.184353 9.00788 0.411764V4.94117H11.2654C11.384 4.93955 11.4981 4.98427 11.5804 5.0647L11.7554 5.2294C11.8382 5.30672 11.8848 5.41196 11.8848 5.52175C11.8848 5.63155 11.8382 5.73679 11.7554 5.81411L6.68913 10.5823C6.60974 10.662 6.4989 10.7071 6.38288 10.7071ZM12.5099 13.5883V12.7647C12.5099 12.5373 12.314 12.353 12.0724 12.353H0.697387C0.455763 12.353 0.259888 12.5373 0.259888 12.7647V13.5883C0.259888 13.8157 0.455763 14 0.697387 14H12.0724C12.314 14 12.5099 13.8157 12.5099 13.5883Z" fill="#222222"/>
</svg>
