<svg width="16" height="15" viewBox="0 0 16 15" fill="none" xmlns="http://www.w3.org/2000/svg">
<path d="M15.6884 7.69418C15.6859 11.0018 13.5681 13.9371 10.4299 14.9823C10.3125 15.0185 10.1849 14.9986 10.084 14.9285C9.98309 14.8551 9.92314 14.738 9.92254 14.6132V12.5606C9.93917 12.0077 9.80638 11.4606 9.53815 10.9769C9.49758 10.9136 9.49758 10.8326 9.53815 10.7693C9.56933 10.711 9.62644 10.671 9.69191 10.6617C11.5677 10.4695 12.6133 9.72377 12.6133 7.69418C12.6585 6.74653 12.33 5.819 11.6984 5.11105C11.7905 4.812 11.8397 4.50139 11.8445 4.18851C11.8412 3.90799 11.8025 3.62902 11.7292 3.35822C11.6809 3.17765 11.5074 3.05984 11.3217 3.08146C10.6173 3.18144 9.96164 3.49854 9.4459 3.98863C8.49118 3.80416 7.50998 3.80416 6.55526 3.98863C6.03952 3.49854 5.38382 3.18144 4.67942 3.08146C4.49375 3.05984 4.3203 3.17765 4.27197 3.35822C4.19869 3.62902 4.15995 3.90799 4.15665 4.18851C4.16143 4.50139 4.21061 4.812 4.30272 5.11105C3.67114 5.819 3.34264 6.74653 3.38786 7.69418C3.38786 9.8314 4.54873 10.5464 6.67827 10.7232C6.41391 11.0696 6.23245 11.472 6.1478 11.8994C6.1478 11.8994 6.1478 11.9532 6.1478 11.9917C6.1441 12.0275 6.1441 12.0635 6.1478 12.0993C6.11581 12.341 5.8985 12.5142 5.65578 12.4914C5.54004 12.486 5.42703 12.4544 5.3252 12.3991C4.90637 12.1441 4.53664 11.816 4.23353 11.4305C4.0404 11.2115 3.83506 11.0036 3.6185 10.8078C3.48089 10.6886 3.32843 10.5879 3.16491 10.5079C3.05033 10.4436 2.91048 10.4436 2.7959 10.5079C2.6859 10.5785 2.61929 10.7001 2.61907 10.8308V10.8769C2.61929 11.0076 2.6859 11.1293 2.7959 11.1998C3.07186 11.4308 3.31044 11.7031 3.50318 12.0071C3.82867 12.5171 4.24262 12.9649 4.72555 13.3294C5.04373 13.5427 5.41879 13.6552 5.80185 13.6523H6.07861V14.6132C6.07802 14.738 6.01807 14.8551 5.91717 14.9285C5.81625 14.9986 5.68867 15.0185 5.57121 14.9823C1.84417 13.7409 -0.347485 9.88943 0.489055 6.05121C1.32559 2.21298 4.9212 -0.37717 8.82678 0.0450015C12.7324 0.467173 15.6914 3.76584 15.6884 7.69418Z" fill="#222222"/>
</svg>
