<svg width="31" height="30" viewBox="0 0 31 30" fill="none" xmlns="http://www.w3.org/2000/svg">
<g clip-path="url(#clip0_2_410)">
<path d="M25.4034 13.75C25.0697 13.75 24.7422 13.7862 24.4259 13.8525C24.0047 9.59125 20.3984 6.25 16.0284 6.25C15.5109 6.25 15.0909 6.67 15.0909 7.1875V22.1875C15.0909 22.705 15.5109 23.125 16.0284 23.125H25.4034C27.9897 23.125 30.0909 21.0237 30.0909 18.4375C30.0909 15.8537 27.9897 13.75 25.4034 13.75Z" fill="#222222"/>
<path d="M11.3409 9.0625V22.1875C11.3409 22.705 11.7609 23.125 12.2784 23.125C12.7959 23.125 13.2159 22.705 13.2159 22.1875V9.0625C13.2159 8.545 12.7959 8.125 12.2784 8.125C11.7609 8.125 11.3409 8.545 11.3409 9.0625Z" fill="#222222"/>
<path d="M7.59094 12.8125V22.1875C7.59094 22.705 8.01094 23.125 8.52844 23.125C9.04594 23.125 9.46594 22.705 9.46594 22.1875V12.8125C9.46594 12.295 9.04594 11.875 8.52844 11.875C8.01094 11.875 7.59094 12.295 7.59094 12.8125Z" fill="#222222"/>
<path d="M3.84094 22.1875C3.84094 22.705 4.26094 23.125 4.77844 23.125C5.29594 23.125 5.71594 22.705 5.71594 22.1875V12.8125C5.71594 12.295 5.29594 11.875 4.77844 11.875C4.26094 11.875 3.84094 12.295 3.84094 12.8125V22.1875Z" fill="#222222"/>
<path d="M1.02843 23.125C1.54593 23.125 1.96593 22.705 1.96593 22.1875V16.5625C1.96593 16.045 1.54593 15.625 1.02843 15.625C0.510935 15.625 0.0909348 16.045 0.0909348 16.5625V22.1875C0.0909348 22.705 0.510935 23.125 1.02843 23.125Z" fill="#222222"/>
</g>
<defs>
<clipPath id="clip0_2_410">
<rect width="30" height="30" fill="white" transform="translate(0.0909424)"/>
</clipPath>
</defs>
</svg>
