<svg width="25" height="24" viewBox="0 0 25 24" fill="none" xmlns="http://www.w3.org/2000/svg">
<g clip-path="url(#clip0_2_406)">
<path d="M12.0909 24C18.7149 24 24.0909 18.624 24.0909 12C24.0909 5.376 18.7149 0 12.0909 0C5.46694 0 0.0909424 5.376 0.0909424 12C0.0909424 18.624 5.46694 24 12.0909 24ZM16.9629 17.656V17.657C16.1559 17.657 13.6069 14.829 6.44294 16.297C6.25394 16.346 6.00694 16.423 5.86694 16.423C4.95194 16.423 4.77694 15.054 5.76094 14.845C9.72394 13.97 13.7739 14.047 17.2279 16.113C18.0519 16.639 17.7019 17.656 16.9629 17.656ZM18.2659 14.483C18.1529 14.453 18.1859 14.552 17.6689 14.28C14.6439 12.49 10.1359 11.768 6.12394 12.857C5.89194 12.92 5.76594 12.983 5.54794 12.983C4.47694 12.983 4.19294 11.372 5.35994 11.043C10.0759 9.718 15.1349 10.491 18.6569 12.586C19.0489 12.818 19.2039 13.119 19.2039 13.539C19.1989 14.061 18.7929 14.483 18.2659 14.483ZM4.63894 6.998C9.16194 5.674 16.0069 6.092 20.2629 8.576C21.3539 9.205 20.9249 10.796 19.7649 10.796L19.7639 10.795C19.5119 10.795 19.3569 10.732 19.1389 10.606C15.6959 8.55 9.53494 8.057 5.54894 9.17C5.37394 9.218 5.15594 9.295 4.92394 9.295C4.28494 9.295 3.79694 8.796 3.79694 8.153C3.79694 7.496 4.20394 7.124 4.63894 6.998Z" fill="#222222"/>
</g>
<defs>
<clipPath id="clip0_2_406">
<rect width="24" height="24" fill="white" transform="translate(0.0909424)"/>
</clipPath>
</defs>
</svg>
