<svg width="17" height="14" viewBox="0 0 17 14" fill="none" xmlns="http://www.w3.org/2000/svg">
<path fill-rule="evenodd" clip-rule="evenodd" d="M9.26939 0.875V13.125C9.26939 13.6082 8.87723 14 8.39347 14H7.87668C7.64689 13.999 7.42668 13.9079 7.26353 13.7463L3.90876 10.395C3.41643 9.90258 2.7485 9.62561 2.05181 9.625C1.2004 9.625 0.510193 8.93552 0.510193 8.085V5.915C0.510193 5.06448 1.2004 4.375 2.05181 4.375C2.7485 4.37439 3.41643 4.09742 3.90876 3.605L7.26353 0.25375C7.42668 0.0920988 7.64689 0.000966544 7.87668 0H8.39347C8.87723 0 9.26939 0.391751 9.26939 0.875ZM14.5246 2.38876C14.4403 2.30357 14.3286 2.25088 14.2093 2.24001C14.0877 2.23691 13.9703 2.28445 13.8852 2.37126L13.2633 2.99251C13.1075 3.16032 13.1075 3.41971 13.2633 3.58751C14.9455 5.55219 14.9455 8.44783 13.2633 10.4125C13.1075 10.5803 13.1075 10.8397 13.2633 11.0075L13.8852 11.6288C13.9703 11.7156 14.0877 11.7631 14.2093 11.76C14.3291 11.7507 14.4413 11.6978 14.5246 11.6113C16.8383 8.97153 16.8383 5.0285 14.5246 2.38876ZM11.4154 4.85632C11.5065 4.76768 11.63 4.72024 11.757 4.72507C11.8834 4.74 11.9994 4.8026 12.0811 4.90007C13.0154 6.14451 13.0154 7.85562 12.0811 9.10007C12.001 9.19811 11.8835 9.25835 11.757 9.26632C11.6311 9.27453 11.5074 9.23017 11.4154 9.14382L10.7935 8.51382C10.6442 8.36814 10.6185 8.13744 10.7322 7.96257C11.1172 7.37854 11.1172 6.6216 10.7322 6.03757C10.6185 5.8627 10.6442 5.632 10.7935 5.48632L11.4154 4.85632Z" fill="#222222"/>
</svg>
